<?xml version="1.0" encoding="utf-8"?>
<!-- Generator: Adobe Illustrator 24.0.0, SVG Export Plug-In . SVG Version: 6.00 Build 0)  -->
<svg version="1.1" id="Calque_1" xmlns="http://www.w3.org/2000/svg" xmlns:xlink="http://www.w3.org/1999/xlink" x="0px" y="0px"
	 viewBox="0 0 200 100" style="enable-background:new 0 0 200 100;" xml:space="preserve">
<style type="text/css">
	.st0{fill-rule:evenodd;clip-rule:evenodd;fill:#DA8F07;}
	.st1{fill:#FFFFFF;}
</style>
<g>
	<polygon class="st0" points="37.73,77.38 37.73,80 1.56,80 1.56,75.14 37.73,75.14 	"/>
	<g>
		<polygon class="st1" points="20.92,20.88 1.56,33.59 1.56,44.95 6.17,44.95 6.17,36.77 20.92,27.23 35.67,36.77 35.67,44.95 
			40.28,44.95 40.28,33.59 		"/>
		<path class="st0" d="M28.28,48.36l1.21-0.05l2.31-0.41c0.32-0.08,0.68-0.14,1.09-0.2l0.01,0l0,0c1.2-0.15,2.82-0.21,5-0.24
			c6.64-0.01,11.38,2.32,14.34,5.9c1.71,2.02,1.26,2.95-0.92,1.23c-10.46-7.9-9.7,5.69-9.81,5.75c0,0-0.33-0.02-0.82-0.02L40.68,80
			l-5.1-0.02l0.02-19.68c-0.44,0.04-0.72,0.05-0.72,0.05c0.01,0.28-0.03-0.65-0.08-0.88c-0.18-1-0.29-1.95-0.82-2.85
			c-0.55-0.94-1.5-1.72-2.62-1.67c0,0,0,0,0,0c-0.07,0-0.14,0.01-0.21,0.02c-0.02,0-0.05,0.01-0.08,0.01
			c-0.03,0-0.05,0.01-0.08,0.01C30.96,54.99,30.93,55,30.9,55c-0.01,0-0.02,0.01-0.03,0.01c-0.44,0.11-1.02,0.37-1.41,1l-1.18,0.01
			c-0.53-0.03-0.98-0.48-1-1.04l0.02-5.59C27.27,48.83,27.75,48.33,28.28,48.36z"/>
		<polygon class="st0" points="1.56,75.7 1.56,47.45 6.18,47.45 6.18,76.64 		"/>
	</g>
</g>
<g>
	<path class="st1" d="M62.24,45.71v0.83c0,0.13,0.05,0.24,0.14,0.34s0.2,0.14,0.34,0.14h5.35c0.13,0,0.24,0.05,0.34,0.14
		c0.09,0.09,0.14,0.2,0.14,0.33v2.73c0,0.13-0.05,0.24-0.14,0.34c-0.09,0.09-0.2,0.14-0.34,0.14h-5.35c-0.13,0-0.24,0.05-0.34,0.14
		s-0.14,0.2-0.14,0.34v0.75c0,0.13,0.05,0.24,0.14,0.33c0.09,0.09,0.2,0.14,0.34,0.14h6.14c0.13,0,0.24,0.05,0.34,0.14
		s0.14,0.2,0.14,0.34v2.72c0,0.13-0.05,0.24-0.14,0.34s-0.2,0.14-0.34,0.14H58.8c-0.13,0-0.24-0.05-0.34-0.14s-0.14-0.2-0.14-0.34
		v-13.5c0-0.13,0.05-0.24,0.14-0.33s0.2-0.14,0.34-0.14h10.05c0.13,0,0.24,0.05,0.34,0.14s0.14,0.2,0.14,0.33v2.69
		c0,0.13-0.05,0.24-0.14,0.34s-0.2,0.14-0.34,0.14h-6.14c-0.13,0-0.24,0.05-0.34,0.14C62.28,45.46,62.24,45.58,62.24,45.71z"/>
	<path class="st1" d="M85.42,42.07v13.5c0,0.13-0.05,0.24-0.14,0.34c-0.09,0.09-0.2,0.14-0.33,0.14h-2.92
		c-0.13,0-0.27-0.04-0.41-0.12c-0.14-0.08-0.26-0.17-0.33-0.28l-5.14-7.25c-0.08-0.1-0.16-0.15-0.25-0.13
		c-0.09,0.02-0.13,0.1-0.13,0.23v7.07c0,0.13-0.05,0.24-0.14,0.34s-0.21,0.14-0.34,0.14h-2.96c-0.13,0-0.25-0.05-0.34-0.14
		c-0.09-0.09-0.14-0.2-0.14-0.34v-13.5c0-0.13,0.05-0.24,0.14-0.33c0.09-0.09,0.2-0.14,0.34-0.14h2.96c0.13,0,0.27,0.04,0.41,0.11
		c0.14,0.07,0.26,0.16,0.34,0.27l5.13,7.25c0.08,0.11,0.16,0.15,0.25,0.14c0.09-0.01,0.13-0.09,0.13-0.22v-7.07
		c0-0.13,0.05-0.24,0.14-0.33c0.09-0.09,0.2-0.14,0.34-0.14h2.92c0.13,0,0.24,0.05,0.34,0.14C85.37,41.83,85.42,41.94,85.42,42.07z"
		/>
	<path class="st1" d="M98.05,45.23h-2.76c-0.13,0-0.24,0.05-0.34,0.14c-0.09,0.09-0.14,0.21-0.14,0.34v9.87
		c0,0.13-0.04,0.24-0.13,0.34c-0.09,0.09-0.2,0.14-0.35,0.14h-2.96c-0.13,0-0.24-0.05-0.34-0.14c-0.09-0.09-0.14-0.2-0.14-0.34
		v-9.87c0-0.13-0.04-0.24-0.13-0.34c-0.09-0.09-0.2-0.14-0.35-0.14h-2.8c-0.13,0-0.24-0.05-0.34-0.14s-0.14-0.2-0.14-0.34v-2.69
		c0-0.13,0.05-0.24,0.14-0.33s0.2-0.14,0.34-0.14h10.42c0.15,0,0.26,0.05,0.35,0.14c0.09,0.09,0.13,0.2,0.13,0.33v2.69
		c0,0.13-0.04,0.24-0.13,0.34C98.31,45.19,98.2,45.23,98.05,45.23z"/>
	<path class="st1" d="M103.5,56.05h-2.96c-0.13,0-0.25-0.05-0.34-0.14c-0.09-0.09-0.14-0.2-0.14-0.34v-13.5
		c0-0.13,0.05-0.24,0.14-0.33c0.09-0.09,0.2-0.14,0.34-0.14h6.14c0.76,0,1.47,0.13,2.11,0.39c0.64,0.26,1.19,0.62,1.65,1.08
		c0.45,0.46,0.81,1.01,1.07,1.64c0.26,0.63,0.38,1.33,0.38,2.09c0,0.42-0.05,0.84-0.15,1.25c-0.1,0.41-0.24,0.81-0.42,1.17
		c-0.18,0.37-0.4,0.7-0.65,1c-0.25,0.3-0.53,0.54-0.85,0.74c-0.11,0.08-0.17,0.17-0.21,0.29c-0.03,0.11-0.01,0.22,0.07,0.33
		c0.5,0.66,1.03,1.34,1.58,2.03c0.55,0.7,1.05,1.34,1.48,1.91c0.08,0.11,0.1,0.22,0.06,0.35c-0.04,0.13-0.12,0.19-0.26,0.19h-3.67
		c-0.13,0-0.27-0.04-0.42-0.11c-0.15-0.07-0.27-0.16-0.35-0.27c-0.42-0.55-0.83-1.11-1.25-1.68c-0.41-0.57-0.82-1.14-1.23-1.72
		c-0.08-0.1-0.19-0.19-0.33-0.27c-0.14-0.07-0.28-0.11-0.41-0.11h-0.43c-0.13,0-0.24,0.05-0.33,0.14c-0.09,0.09-0.14,0.2-0.14,0.34
		v3.2c0,0.13-0.05,0.24-0.14,0.34S103.63,56.05,103.5,56.05z M104.44,48.27h2.08c0.16,0,0.32-0.03,0.49-0.09
		c0.17-0.06,0.33-0.15,0.47-0.28c0.14-0.13,0.26-0.28,0.35-0.46c0.09-0.18,0.14-0.4,0.14-0.65c0-0.13-0.02-0.29-0.07-0.46
		c-0.05-0.18-0.12-0.35-0.24-0.51c-0.11-0.16-0.26-0.3-0.45-0.41c-0.19-0.11-0.42-0.17-0.7-0.17h-2.08c-0.13,0-0.24,0.05-0.33,0.14
		c-0.09,0.09-0.14,0.21-0.14,0.34v2.09c0,0.13,0.05,0.24,0.14,0.34C104.2,48.23,104.31,48.27,104.44,48.27z"/>
	<path class="st1" d="M118.15,45.71v0.83c0,0.13,0.05,0.24,0.14,0.34s0.2,0.14,0.34,0.14h5.35c0.13,0,0.24,0.05,0.34,0.14
		s0.14,0.2,0.14,0.33v2.73c0,0.13-0.05,0.24-0.14,0.34c-0.09,0.09-0.2,0.14-0.34,0.14h-5.35c-0.13,0-0.24,0.05-0.34,0.14
		s-0.14,0.2-0.14,0.34v0.75c0,0.13,0.05,0.24,0.14,0.33c0.09,0.09,0.2,0.14,0.34,0.14h6.14c0.13,0,0.24,0.05,0.34,0.14
		s0.14,0.2,0.14,0.34v2.72c0,0.13-0.05,0.24-0.14,0.34s-0.2,0.14-0.34,0.14h-10.05c-0.13,0-0.24-0.05-0.34-0.14s-0.14-0.2-0.14-0.34
		v-13.5c0-0.13,0.05-0.24,0.14-0.33s0.2-0.14,0.34-0.14h10.05c0.13,0,0.24,0.05,0.34,0.14s0.14,0.2,0.14,0.33v2.69
		c0,0.13-0.05,0.24-0.14,0.34s-0.2,0.14-0.34,0.14h-6.14c-0.13,0-0.24,0.05-0.34,0.14C118.19,45.46,118.15,45.58,118.15,45.71z"/>
	<path class="st1" d="M133.83,52.16h-1.72c-0.13,0-0.24,0.05-0.34,0.14c-0.09,0.09-0.14,0.21-0.14,0.34v2.94
		c0,0.13-0.05,0.24-0.14,0.34s-0.2,0.14-0.33,0.14h-2.97c-0.13,0-0.24-0.05-0.33-0.14s-0.14-0.2-0.14-0.34v-13.5
		c0-0.13,0.05-0.24,0.14-0.33s0.2-0.14,0.34-0.14h6.04c0.74,0,1.43,0.14,2.08,0.41c0.65,0.28,1.22,0.66,1.7,1.15
		c0.48,0.49,0.86,1.05,1.15,1.7c0.28,0.64,0.42,1.34,0.42,2.07c0,0.74-0.12,1.43-0.36,2.06c-0.24,0.64-0.6,1.19-1.08,1.66
		c-0.48,0.47-1.08,0.84-1.8,1.11C135.63,52.03,134.79,52.16,133.83,52.16z M133.97,45.23h-1.87c-0.13,0-0.24,0.05-0.34,0.14
		c-0.09,0.09-0.14,0.2-0.14,0.33v2.32c0,0.13,0.05,0.24,0.14,0.33c0.09,0.09,0.21,0.14,0.34,0.14h2.12c0.5,0,0.87-0.16,1.1-0.48
		c0.23-0.32,0.35-0.68,0.35-1.09c0-0.21-0.04-0.42-0.11-0.62c-0.07-0.2-0.18-0.38-0.33-0.54c-0.15-0.16-0.32-0.29-0.54-0.38
		C134.5,45.28,134.25,45.23,133.97,45.23z"/>
	<path class="st1" d="M144.58,56.05h-2.96c-0.13,0-0.25-0.05-0.34-0.14c-0.09-0.09-0.14-0.2-0.14-0.34v-13.5
		c0-0.13,0.05-0.24,0.14-0.33c0.09-0.09,0.2-0.14,0.34-0.14h6.14c0.76,0,1.47,0.13,2.11,0.39c0.64,0.26,1.19,0.62,1.65,1.08
		c0.45,0.46,0.81,1.01,1.07,1.64c0.26,0.63,0.38,1.33,0.38,2.09c0,0.42-0.05,0.84-0.15,1.25c-0.1,0.41-0.24,0.81-0.42,1.17
		c-0.18,0.37-0.4,0.7-0.65,1c-0.25,0.3-0.53,0.54-0.85,0.74c-0.11,0.08-0.17,0.17-0.21,0.29c-0.03,0.11-0.01,0.22,0.07,0.33
		c0.5,0.66,1.03,1.34,1.58,2.03c0.55,0.7,1.05,1.34,1.48,1.91c0.08,0.11,0.1,0.22,0.06,0.35c-0.04,0.13-0.12,0.19-0.26,0.19h-3.67
		c-0.13,0-0.27-0.04-0.42-0.11c-0.15-0.07-0.27-0.16-0.35-0.27c-0.42-0.55-0.83-1.11-1.25-1.68c-0.41-0.57-0.82-1.14-1.23-1.72
		c-0.08-0.1-0.19-0.19-0.33-0.27c-0.14-0.07-0.28-0.11-0.41-0.11h-0.43c-0.13,0-0.24,0.05-0.33,0.14c-0.09,0.09-0.14,0.2-0.14,0.34
		v3.2c0,0.13-0.05,0.24-0.14,0.34S144.71,56.05,144.58,56.05z M145.53,48.27h2.08c0.16,0,0.32-0.03,0.49-0.09
		c0.17-0.06,0.33-0.15,0.47-0.28c0.14-0.13,0.26-0.28,0.35-0.46c0.09-0.18,0.14-0.4,0.14-0.65c0-0.13-0.02-0.29-0.07-0.46
		c-0.05-0.18-0.12-0.35-0.24-0.51c-0.11-0.16-0.26-0.3-0.45-0.41c-0.19-0.11-0.42-0.17-0.7-0.17h-2.08c-0.13,0-0.24,0.05-0.33,0.14
		c-0.09,0.09-0.14,0.21-0.14,0.34v2.09c0,0.13,0.05,0.24,0.14,0.34C145.29,48.23,145.4,48.27,145.53,48.27z"/>
	<path class="st1" d="M158.94,56.05h-2.97c-0.14,0-0.26-0.05-0.34-0.14c-0.09-0.09-0.13-0.2-0.13-0.34V42.09
		c0-0.13,0.04-0.24,0.13-0.34c0.09-0.09,0.2-0.14,0.34-0.14h2.97c0.13,0,0.24,0.05,0.33,0.14s0.14,0.2,0.14,0.34v13.48
		c0,0.13-0.05,0.24-0.14,0.34S159.07,56.05,158.94,56.05z"/>
	<path class="st1" d="M163.69,51.1c0.71,0.46,1.42,0.82,2.11,1.09c0.7,0.26,1.35,0.4,1.95,0.4c0.58,0,1.02-0.08,1.32-0.25
		c0.3-0.16,0.45-0.41,0.45-0.74c0-0.17-0.07-0.31-0.2-0.4c-0.13-0.1-0.31-0.18-0.52-0.25c-0.22-0.06-0.47-0.12-0.76-0.16
		c-0.29-0.04-0.59-0.09-0.89-0.16c-0.29-0.05-0.63-0.12-1.02-0.19c-0.39-0.07-0.79-0.18-1.19-0.32c-0.41-0.14-0.81-0.31-1.21-0.52
		c-0.4-0.21-0.76-0.48-1.08-0.81c-0.32-0.33-0.57-0.72-0.76-1.17c-0.19-0.45-0.29-0.99-0.29-1.61c0-0.91,0.18-1.66,0.53-2.25
		c0.36-0.59,0.81-1.06,1.35-1.41c0.55-0.35,1.15-0.59,1.83-0.73c0.67-0.14,1.32-0.21,1.95-0.21c1.11,0,2.1,0.16,2.97,0.48
		c0.87,0.32,1.71,0.79,2.52,1.41c0.11,0.09,0.16,0.2,0.18,0.34c0.01,0.13-0.02,0.25-0.1,0.36l-1.54,2.19
		c-0.08,0.11-0.18,0.17-0.32,0.2c-0.13,0.03-0.25,0-0.36-0.08c-0.67-0.42-1.3-0.72-1.88-0.9c-0.58-0.18-1.11-0.27-1.6-0.27
		c-0.14,0-0.31,0-0.5,0.01s-0.37,0.03-0.54,0.08c-0.17,0.05-0.31,0.12-0.42,0.23c-0.11,0.1-0.17,0.25-0.17,0.43s0.14,0.35,0.41,0.49
		c0.28,0.14,0.59,0.27,0.95,0.37c0.36,0.11,0.7,0.19,1.03,0.25c0.33,0.06,0.54,0.1,0.63,0.11c0.47,0.09,0.99,0.23,1.56,0.4
		c0.57,0.18,1.1,0.44,1.59,0.79c0.49,0.35,0.91,0.8,1.24,1.36c0.34,0.56,0.5,1.26,0.5,2.1c0,0.79-0.14,1.47-0.41,2.04
		s-0.66,1.04-1.15,1.41c-0.49,0.37-1.09,0.64-1.78,0.82c-0.69,0.18-1.46,0.27-2.3,0.27c-0.68,0-1.32-0.06-1.91-0.17
		c-0.59-0.11-1.15-0.27-1.66-0.46c-0.51-0.2-0.99-0.43-1.43-0.7c-0.44-0.27-0.85-0.56-1.21-0.86c-0.11-0.08-0.16-0.19-0.18-0.33
		c-0.01-0.14,0.02-0.26,0.1-0.36l1.52-2.19c0.08-0.1,0.18-0.17,0.32-0.2C163.47,51.01,163.59,51.03,163.69,51.1z"/>
	<path class="st1" d="M179.37,45.71v0.83c0,0.13,0.05,0.24,0.14,0.34s0.21,0.14,0.34,0.14h5.35c0.13,0,0.24,0.05,0.34,0.14
		s0.14,0.2,0.14,0.33v2.73c0,0.13-0.05,0.24-0.14,0.34c-0.09,0.09-0.2,0.14-0.34,0.14h-5.35c-0.13,0-0.24,0.05-0.34,0.14
		s-0.14,0.2-0.14,0.34v0.75c0,0.13,0.05,0.24,0.14,0.33c0.09,0.09,0.21,0.14,0.34,0.14h6.14c0.13,0,0.24,0.05,0.33,0.14
		s0.14,0.2,0.14,0.34v2.72c0,0.13-0.05,0.24-0.14,0.34s-0.2,0.14-0.33,0.14h-10.05c-0.13,0-0.24-0.05-0.34-0.14s-0.14-0.2-0.14-0.34
		v-13.5c0-0.13,0.05-0.24,0.14-0.33s0.2-0.14,0.34-0.14h10.05c0.13,0,0.24,0.05,0.33,0.14s0.14,0.2,0.14,0.33v2.69
		c0,0.13-0.05,0.24-0.14,0.34s-0.2,0.14-0.33,0.14h-6.14c-0.13,0-0.24,0.05-0.34,0.14C179.41,45.46,179.37,45.58,179.37,45.71z"/>
	<path class="st1" d="M72.31,75.91c-0.38,0.62-0.8,1.18-1.26,1.68c-0.46,0.5-0.98,0.93-1.55,1.29c-0.57,0.35-1.21,0.63-1.91,0.82
		c-0.7,0.2-1.47,0.29-2.31,0.29c-1.05,0-2.04-0.2-2.96-0.59c-0.92-0.4-1.73-0.93-2.42-1.6c-0.69-0.67-1.23-1.46-1.63-2.37
		c-0.4-0.91-0.59-1.88-0.59-2.9c0-1.03,0.2-1.99,0.59-2.9c0.39-0.91,0.94-1.7,1.63-2.37c0.69-0.67,1.5-1.21,2.42-1.6
		c0.92-0.4,1.91-0.59,2.96-0.59c0.87,0,1.65,0.1,2.35,0.3c0.7,0.2,1.33,0.47,1.9,0.83c0.57,0.36,1.08,0.79,1.53,1.29
		c0.45,0.51,0.87,1.06,1.25,1.67c0.07,0.11,0.08,0.22,0.04,0.34c-0.04,0.12-0.12,0.2-0.24,0.26l-2.8,1.11
		c-0.13,0.05-0.26,0.05-0.39,0c-0.13-0.05-0.23-0.13-0.3-0.24c-0.38-0.6-0.84-1.07-1.38-1.39c-0.54-0.32-1.19-0.48-1.95-0.48
		c-0.5,0-0.97,0.11-1.41,0.32c-0.44,0.21-0.83,0.49-1.15,0.84c-0.33,0.35-0.59,0.76-0.77,1.22c-0.18,0.46-0.28,0.94-0.28,1.43
		c0,0.5,0.09,0.98,0.28,1.44c0.18,0.45,0.44,0.86,0.77,1.2c0.33,0.34,0.71,0.62,1.15,0.83c0.44,0.21,0.91,0.32,1.41,0.32
		c0.72,0,1.38-0.17,1.96-0.52c0.59-0.35,1.05-0.8,1.39-1.35c0.07-0.1,0.16-0.18,0.29-0.24c0.13-0.05,0.25-0.05,0.38,0l2.8,1.11
		c0.12,0.05,0.2,0.13,0.24,0.25C72.38,75.68,72.37,75.8,72.31,75.91z"/>
	<path class="st1" d="M77.44,65.75c0.05-0.12,0.14-0.22,0.27-0.31c0.12-0.09,0.26-0.13,0.4-0.13h2.76c0.13,0,0.26,0.04,0.38,0.13
		c0.13,0.09,0.21,0.19,0.27,0.31l5.76,13.43c0.05,0.12,0.04,0.24-0.03,0.37c-0.07,0.13-0.21,0.2-0.42,0.2h-3.38
		c-0.14,0-0.28-0.04-0.4-0.13c-0.13-0.09-0.22-0.19-0.29-0.31l-0.53-1.18c-0.07-0.12-0.16-0.22-0.29-0.31
		c-0.13-0.09-0.25-0.13-0.38-0.13H77.4c-0.14,0-0.28,0.04-0.4,0.13c-0.13,0.09-0.21,0.19-0.27,0.31l-0.55,1.18
		c-0.05,0.12-0.14,0.22-0.27,0.31c-0.13,0.09-0.25,0.13-0.38,0.13h-3.4c-0.07,0-0.13-0.01-0.21-0.04c-0.07-0.03-0.13-0.07-0.18-0.12
		c-0.05-0.05-0.08-0.12-0.09-0.2c-0.01-0.08,0.01-0.17,0.06-0.28L77.44,65.75z M78.6,74.33h1.76c0.13,0,0.23-0.04,0.29-0.13
		c0.06-0.09,0.06-0.19-0.01-0.31c-0.13-0.33-0.29-0.71-0.47-1.16c-0.18-0.44-0.36-0.85-0.51-1.23c-0.05-0.12-0.11-0.18-0.18-0.18
		c-0.07,0-0.13,0.06-0.18,0.18l-0.99,2.39c-0.05,0.12-0.05,0.22,0,0.31C78.36,74.29,78.46,74.33,78.6,74.33z"/>
	<path class="st1" d="M91.35,79.74H88.4c-0.13,0-0.25-0.05-0.34-0.14c-0.09-0.09-0.14-0.2-0.14-0.34v-13.5
		c0-0.13,0.05-0.24,0.14-0.33c0.09-0.09,0.2-0.14,0.34-0.14h6.14c0.76,0,1.47,0.13,2.11,0.39c0.64,0.26,1.19,0.62,1.65,1.08
		c0.45,0.46,0.81,1.01,1.07,1.64c0.26,0.63,0.38,1.33,0.38,2.09c0,0.42-0.05,0.84-0.15,1.25c-0.1,0.41-0.24,0.81-0.42,1.17
		c-0.18,0.37-0.4,0.7-0.65,1c-0.25,0.3-0.53,0.54-0.85,0.74c-0.11,0.08-0.17,0.17-0.21,0.29c-0.03,0.11-0.01,0.22,0.07,0.33
		c0.5,0.66,1.03,1.34,1.58,2.03c0.55,0.7,1.05,1.34,1.48,1.91c0.08,0.11,0.1,0.22,0.06,0.35c-0.04,0.13-0.12,0.19-0.26,0.19h-3.67
		c-0.13,0-0.27-0.04-0.42-0.11c-0.15-0.07-0.27-0.16-0.35-0.27c-0.42-0.55-0.83-1.11-1.25-1.68c-0.41-0.57-0.82-1.14-1.23-1.72
		c-0.08-0.1-0.19-0.19-0.33-0.27c-0.14-0.07-0.28-0.11-0.41-0.11H92.3c-0.13,0-0.24,0.05-0.33,0.14c-0.09,0.09-0.14,0.2-0.14,0.34
		v3.2c0,0.13-0.05,0.24-0.14,0.34S91.49,79.74,91.35,79.74z M92.3,71.97h2.08c0.16,0,0.32-0.03,0.49-0.09
		c0.17-0.06,0.33-0.15,0.47-0.28s0.26-0.28,0.35-0.46c0.09-0.18,0.14-0.4,0.14-0.65c0-0.13-0.02-0.29-0.07-0.46
		c-0.05-0.18-0.12-0.35-0.24-0.51c-0.11-0.16-0.26-0.3-0.45-0.41s-0.42-0.17-0.7-0.17H92.3c-0.13,0-0.24,0.05-0.33,0.14
		c-0.09,0.09-0.14,0.21-0.14,0.34v2.09c0,0.13,0.05,0.24,0.14,0.34C92.06,71.92,92.17,71.97,92.3,71.97z"/>
	<path class="st1" d="M115.7,65.77v13.5c0,0.13-0.05,0.24-0.14,0.34c-0.09,0.09-0.2,0.14-0.33,0.14h-2.92
		c-0.13,0-0.27-0.04-0.41-0.12c-0.14-0.08-0.26-0.17-0.33-0.28l-5.14-7.25c-0.08-0.1-0.16-0.15-0.25-0.13
		c-0.09,0.02-0.13,0.1-0.13,0.23v7.07c0,0.13-0.05,0.24-0.14,0.34s-0.21,0.14-0.34,0.14h-2.96c-0.13,0-0.25-0.05-0.34-0.14
		c-0.09-0.09-0.14-0.2-0.14-0.34v-13.5c0-0.13,0.05-0.24,0.14-0.33c0.09-0.09,0.2-0.14,0.34-0.14h2.96c0.13,0,0.27,0.04,0.41,0.11
		c0.14,0.07,0.26,0.16,0.34,0.27l5.13,7.25c0.08,0.11,0.16,0.15,0.25,0.14c0.09-0.01,0.13-0.09,0.13-0.22v-7.07
		c0-0.13,0.05-0.24,0.14-0.33c0.09-0.09,0.2-0.14,0.34-0.14h2.92c0.13,0,0.24,0.05,0.34,0.14C115.65,65.52,115.7,65.63,115.7,65.77z
		"/>
	<path class="st1" d="M117.58,72.52c0-1.03,0.2-1.99,0.59-2.9c0.39-0.91,0.93-1.7,1.6-2.38c0.67-0.68,1.46-1.21,2.37-1.61
		c0.91-0.4,1.88-0.59,2.9-0.59c1.03,0,1.99,0.2,2.9,0.59c0.91,0.4,1.7,0.93,2.38,1.61c0.68,0.68,1.21,1.47,1.61,2.38
		c0.4,0.91,0.59,1.88,0.59,2.9c0,1.03-0.2,1.99-0.59,2.9c-0.39,0.91-0.93,1.7-1.61,2.38c-0.68,0.68-1.47,1.21-2.38,1.61
		c-0.91,0.39-1.88,0.59-2.9,0.59c-1.03,0-1.99-0.2-2.9-0.59c-0.91-0.4-1.7-0.93-2.37-1.61c-0.67-0.68-1.2-1.47-1.6-2.38
		C117.77,74.51,117.58,73.55,117.58,72.52z M121.48,72.52c0,0.5,0.09,0.98,0.28,1.42c0.18,0.45,0.44,0.84,0.76,1.19
		c0.32,0.34,0.7,0.62,1.14,0.82s0.89,0.31,1.38,0.31c0.49,0,0.95-0.1,1.38-0.31c0.43-0.2,0.82-0.48,1.15-0.82
		c0.33-0.34,0.59-0.74,0.77-1.19c0.18-0.45,0.28-0.92,0.28-1.42c0-0.49-0.09-0.96-0.28-1.41c-0.18-0.45-0.44-0.85-0.77-1.18
		c-0.33-0.34-0.71-0.6-1.15-0.81c-0.43-0.2-0.9-0.31-1.38-0.31c-0.49,0-0.95,0.1-1.38,0.31c-0.43,0.21-0.81,0.47-1.14,0.81
		s-0.58,0.73-0.76,1.18C121.58,71.56,121.48,72.03,121.48,72.52z"/>
	<path class="st1" d="M148.14,65.77v13.5c0,0.13-0.05,0.24-0.14,0.34c-0.09,0.09-0.2,0.14-0.33,0.14h-2.92
		c-0.13,0-0.27-0.04-0.41-0.12c-0.14-0.08-0.26-0.17-0.33-0.28l-5.14-7.25c-0.08-0.1-0.16-0.15-0.25-0.13
		c-0.09,0.02-0.13,0.1-0.13,0.23v7.07c0,0.13-0.05,0.24-0.14,0.34s-0.21,0.14-0.34,0.14h-2.96c-0.13,0-0.25-0.05-0.34-0.14
		c-0.09-0.09-0.14-0.2-0.14-0.34v-13.5c0-0.13,0.05-0.24,0.14-0.33c0.09-0.09,0.2-0.14,0.34-0.14h2.96c0.13,0,0.27,0.04,0.41,0.11
		c0.14,0.07,0.26,0.16,0.34,0.27l5.13,7.25c0.08,0.11,0.16,0.15,0.25,0.14c0.09-0.01,0.13-0.09,0.13-0.22v-7.07
		c0-0.13,0.05-0.24,0.14-0.33c0.09-0.09,0.2-0.14,0.34-0.14h2.92c0.13,0,0.24,0.05,0.34,0.14
		C148.09,65.52,148.14,65.63,148.14,65.77z"/>
	<path class="st1" d="M155.36,65.75c0.05-0.12,0.14-0.22,0.27-0.31c0.12-0.09,0.26-0.13,0.4-0.13h2.76c0.13,0,0.26,0.04,0.38,0.13
		c0.13,0.09,0.21,0.19,0.27,0.31l5.76,13.43c0.05,0.12,0.04,0.24-0.03,0.37c-0.07,0.13-0.21,0.2-0.42,0.2h-3.38
		c-0.14,0-0.28-0.04-0.4-0.13c-0.13-0.09-0.22-0.19-0.29-0.31l-0.53-1.18c-0.07-0.12-0.16-0.22-0.29-0.31
		c-0.13-0.09-0.25-0.13-0.38-0.13h-4.17c-0.14,0-0.28,0.04-0.4,0.13c-0.13,0.09-0.21,0.19-0.27,0.31l-0.55,1.18
		c-0.05,0.12-0.14,0.22-0.27,0.31c-0.13,0.09-0.25,0.13-0.38,0.13h-3.4c-0.07,0-0.13-0.01-0.21-0.04c-0.07-0.03-0.13-0.07-0.18-0.12
		c-0.05-0.05-0.08-0.12-0.09-0.2c-0.01-0.08,0.01-0.17,0.06-0.28L155.36,65.75z M156.53,74.33h1.76c0.13,0,0.23-0.04,0.29-0.13
		c0.06-0.09,0.06-0.19-0.01-0.31c-0.13-0.33-0.29-0.71-0.47-1.16c-0.18-0.44-0.36-0.85-0.51-1.23c-0.05-0.12-0.11-0.18-0.18-0.18
		c-0.07,0-0.13,0.06-0.18,0.18l-0.99,2.39c-0.05,0.12-0.05,0.22,0,0.31C156.28,74.29,156.38,74.33,156.53,74.33z"/>
	<path class="st1" d="M170.19,79.74h-2.97c-0.14,0-0.26-0.05-0.34-0.14s-0.13-0.2-0.13-0.34V65.79c0-0.13,0.04-0.24,0.13-0.34
		s0.2-0.14,0.34-0.14h2.97c0.13,0,0.24,0.05,0.33,0.14s0.14,0.2,0.14,0.34v13.48c0,0.13-0.05,0.24-0.14,0.34
		S170.32,79.74,170.19,79.74z"/>
	<path class="st1" d="M174.95,74.79c0.71,0.46,1.42,0.82,2.11,1.09c0.7,0.26,1.35,0.4,1.95,0.4c0.58,0,1.02-0.08,1.32-0.25
		c0.3-0.16,0.45-0.41,0.45-0.74c0-0.17-0.07-0.31-0.2-0.4c-0.13-0.1-0.31-0.18-0.52-0.25c-0.22-0.06-0.47-0.12-0.76-0.16
		c-0.29-0.04-0.59-0.09-0.89-0.16c-0.29-0.05-0.63-0.12-1.02-0.19c-0.39-0.07-0.79-0.18-1.19-0.32c-0.41-0.14-0.81-0.31-1.21-0.52
		c-0.4-0.21-0.76-0.48-1.08-0.81c-0.32-0.33-0.57-0.72-0.76-1.17c-0.19-0.45-0.29-0.99-0.29-1.61c0-0.91,0.18-1.66,0.53-2.25
		c0.36-0.59,0.81-1.06,1.35-1.41c0.55-0.35,1.15-0.59,1.83-0.73c0.67-0.14,1.32-0.21,1.95-0.21c1.11,0,2.1,0.16,2.97,0.48
		c0.87,0.32,1.71,0.79,2.52,1.41c0.11,0.09,0.17,0.2,0.18,0.34c0.01,0.13-0.02,0.25-0.1,0.36l-1.54,2.19
		c-0.08,0.11-0.18,0.17-0.32,0.2c-0.13,0.03-0.25,0-0.36-0.08c-0.67-0.42-1.3-0.72-1.88-0.9c-0.58-0.18-1.11-0.27-1.6-0.27
		c-0.14,0-0.31,0-0.5,0.01c-0.19,0.01-0.37,0.03-0.54,0.08c-0.17,0.05-0.31,0.12-0.42,0.23c-0.11,0.1-0.17,0.25-0.17,0.43
		s0.14,0.35,0.41,0.49c0.28,0.14,0.59,0.27,0.95,0.37c0.36,0.11,0.7,0.19,1.03,0.25c0.33,0.06,0.54,0.1,0.63,0.11
		c0.48,0.09,0.99,0.23,1.56,0.4c0.57,0.18,1.1,0.44,1.59,0.79c0.49,0.35,0.91,0.8,1.24,1.36c0.34,0.56,0.5,1.26,0.5,2.1
		c0,0.79-0.14,1.47-0.41,2.04c-0.28,0.57-0.66,1.04-1.16,1.41c-0.49,0.37-1.09,0.64-1.78,0.82c-0.69,0.18-1.46,0.27-2.3,0.27
		c-0.68,0-1.32-0.06-1.91-0.17c-0.59-0.11-1.15-0.27-1.66-0.46c-0.51-0.2-0.99-0.43-1.43-0.7c-0.44-0.27-0.85-0.56-1.21-0.86
		c-0.11-0.08-0.16-0.19-0.18-0.33c-0.01-0.14,0.02-0.26,0.1-0.36l1.52-2.19c0.08-0.1,0.18-0.17,0.32-0.2
		C174.72,74.7,174.84,74.72,174.95,74.79z"/>
	<path class="st1" d="M190.62,69.4v0.83c0,0.13,0.05,0.24,0.14,0.34s0.2,0.14,0.34,0.14h5.35c0.13,0,0.24,0.05,0.33,0.14
		s0.14,0.2,0.14,0.33v2.73c0,0.13-0.05,0.24-0.14,0.34c-0.09,0.09-0.2,0.14-0.33,0.14h-5.35c-0.13,0-0.24,0.05-0.34,0.14
		s-0.14,0.2-0.14,0.34v0.75c0,0.13,0.05,0.24,0.14,0.33c0.09,0.09,0.2,0.14,0.34,0.14h6.14c0.13,0,0.24,0.05,0.34,0.14
		s0.14,0.2,0.14,0.34v2.72c0,0.13-0.05,0.24-0.14,0.34s-0.2,0.14-0.34,0.14h-10.05c-0.13,0-0.24-0.05-0.34-0.14s-0.14-0.2-0.14-0.34
		v-13.5c0-0.13,0.05-0.24,0.14-0.33s0.2-0.14,0.34-0.14h10.05c0.13,0,0.24,0.05,0.34,0.14s0.14,0.2,0.14,0.33v2.69
		c0,0.13-0.05,0.24-0.14,0.34s-0.2,0.14-0.34,0.14h-6.14c-0.13,0-0.24,0.05-0.34,0.14C190.67,69.15,190.62,69.27,190.62,69.4z"/>
</g>
</svg>
